<?xml version="1.0"?>
<svg stroke="white" xmlns="http://www.w3.org/2000/svg" xmlns:xlink="http://www.w3.org/1999/xlink" version="1.1" id="Capa_1" x="0px" y="0px" viewBox="0 0 512 512" style="enable-background:new 0 0 512 512;" xml:space="preserve" width="512px" height="512px"><g><g>
	<g>
		<path stroke-width="12" d="M256,0C114.615,0,0,114.615,0,256s114.615,256,256,256c141.317-0.165,255.835-114.683,256-256    C512,114.615,397.385,0,256,0z M256,490.667C126.397,490.667,21.333,385.603,21.333,256S126.397,21.333,256,21.333    C385.542,21.48,490.52,126.458,490.667,256C490.667,385.603,385.603,490.667,256,490.667z" data-original="#000000" class="active-path" data-old_color="#000000" fill="#D22828"/>
	</g>
</g><g>
	<g>
		<path stroke-width="12" d="M145.286,385.789c-71.669-61.001-80.315-168.553-19.313-240.221l-16.256-13.803c-0.262,0.308-0.523,0.617-0.783,0.926    c-68.117,81.074-57.614,202.018,23.461,270.135l13.739-16.32C145.851,386.268,145.568,386.029,145.286,385.789z" data-original="#000000" class="active-path" data-old_color="#000000" fill="#D22828"/>
	</g>
</g><g>
	<g>
		<path stroke-width="12" d="M402.891,131.765l-16.256,13.803c0.245,0.288,0.489,0.576,0.732,0.866c60.519,72.069,51.156,179.554-20.913,240.073    l13.76,16.32c0.31-0.26,0.618-0.521,0.926-0.783C461.781,333.415,471.52,212.407,402.891,131.765z" data-original="#000000" class="active-path" data-old_color="#000000" fill="#D22828"/>
	</g>
</g><g>
	<g>
		<path stroke-width="12" d="M224,74.667v74.666c0,13.932-8.906,25.778-21.333,30.172V53.333h-21.333v126.172C168.906,175.112,160,163.265,160,149.333    V74.667h-21.333v74.667c0.031,25.787,18.339,47.289,42.667,52.253v66.909C168.906,272.888,160,284.735,160,298.667v128    c0,17.673,14.327,32,32,32c17.673,0,32-14.327,32-32v-128c0-13.932-8.906-25.778-21.333-30.172v-66.909    c24.327-4.964,42.636-26.466,42.667-52.253V74.667H224z M202.667,426.667c0,5.891-4.776,10.667-10.667,10.667    s-10.667-4.776-10.667-10.667v-128c0-5.891,4.776-10.667,10.667-10.667s10.667,4.776,10.667,10.667V426.667z" data-original="#000000" class="active-path" data-old_color="#000000" fill="#D22828"/>
	</g>
</g><g>
	<g>
		<path stroke-width="12" d="M330.667,268.495v-67.27c24.601-6.746,42.666-36.493,42.666-73.225c0-41.867-23.467-74.667-53.333-74.667    c-29.867,0-53.333,32.8-53.333,74.667c0,36.732,18.065,66.479,42.667,73.224v67.27C296.906,272.888,288,284.735,288,298.667v128    c0,17.673,14.327,32,32,32c17.673,0,32-14.327,32-32v-128C352,284.735,343.094,272.889,330.667,268.495z M288,128    c0-28.907,14.656-53.333,32-53.333S352,99.093,352,128s-14.656,53.333-32,53.333S288,156.907,288,128z M330.667,426.667    c0,5.891-4.776,10.667-10.667,10.667s-10.667-4.776-10.667-10.667v-128c0-5.891,4.776-10.667,10.667-10.667    s10.667,4.776,10.667,10.667V426.667z" data-original="#000000" class="active-path" data-old_color="#000000" fill="#D22828"/>
	</g>
</g></g> </svg>
