<?xml version="1.0"?>
<svg stroke="white" xmlns="http://www.w3.org/2000/svg" height="512px" viewBox="0 0 512 512" width="512px"><g><path stroke-width="12" d="m512 256c0-23.953125-3.308594-47.671875-9.835938-70.496094l-2.191406-7.667968c4-11.457032 6.027344-24.40625 6.027344-38.703126 0-12.261718-6.132812-44.402343-19.292969-74.460937-23.402343-53.453125-53.542969-64.671875-74.707031-64.671875-13.890625 0-31.65625 4.871094-48.855469 23.457031-33.636719-15.554687-69.628906-23.457031-107.144531-23.457031-68.378906 0-132.667969 26.628906-181.019531 74.980469-48.351563 48.351562-74.980469 112.640625-74.980469 181.019531s26.628906 132.667969 74.980469 181.019531c48.351562 48.351563 112.640625 74.980469 181.019531 74.980469 33.441406 0 65.898438-6.386719 96-18.550781v-43.996094c-28.9375 14.417969-61.535156 22.546875-96 22.546875-119.101562 0-216-96.898438-216-216s96.898438-216 216-216c29.617188 0 58.09375 5.828125 84.855469 17.308594-1.207031 2.488281-2.402344 5.078125-3.578125 7.777344-12.578125 28.859374-19.277344 61.546874-19.277344 74.046874 0 20.816407 4.421875 38.90625 13.140625 53.765626 9.1875 15.664062 26.980469 33.867187 60.859375 39.078124v280.023438h40v-280.007812c15.316406-2.328126 27.339844-7.28125 36.761719-13.441407 2.089843 11.976563 3.171875 24.160157 3.230469 36.425781l.007812.023438v138.550781c26.039062-40.714843 40-88.058593 40-137.550781zm-100-62.5625c-13.355469 0-54 0-54-54.304688 0-5.175781 4.796875-32.484374 15.945312-58.066406 5.382813-12.347656 19.863282-41.066406 38.054688-41.066406 18.265625 0 32.707031 28.472656 38.066406 40.714844 11.035156 25.199218 15.933594 52.351562 15.933594 58.417968 0 37.050782-17.160156 54.304688-54 54.304688zm-156 198.5625c37.433594 0 71.382812-15.203125 96-39.761719v51.199219c-27.628906 18.050781-60.605469 28.5625-96 28.5625-97.046875 0-176-78.953125-176-176s78.953125-176 176-176c11.039062 0 21.839844 1.027344 32.324219 2.984375-4.246094 14.242187-7.230469 27.847656-8.863281 39.066406-7.625-1.332031-15.460938-2.050781-23.460938-2.050781-74.992188 0-136 61.007812-136 136 0 74.988281 61.007812 136 136 136zm0 0" data-original="#000000" class="active-path" data-old_color="#000000" fill="#D22828"/></g> </svg>
