<?xml version="1.0"?>
<svg xmlns="http://www.w3.org/2000/svg" xmlns:xlink="http://www.w3.org/1999/xlink" version="1.1" id="Capa_1" x="0px" y="0px" viewBox="0 0 50.438 50.438" style="enable-background:new 0 0 50.438 50.438;" xml:space="preserve" width="512px" height="512px"><g><g>
	<path d="M37.676,17.771c-0.812-0.987-1.505-1.831-2.174-2.645c-0.208-0.252-0.589-0.298-0.832-0.079   c-4.729,4.268-24.78,30.471-26.547,35.11c-0.116,0.305,0.062,0.378,0.284,0.138c9.931-10.742,19.59-21.191,29.243-31.632   C37.872,18.423,37.884,18.024,37.676,17.771z M5.469,48.649c0.083,0.316,0.285,0.356,0.466,0.084   c8.252-12.326,16.106-24.058,24.054-35.93c0.182-0.272,0.086-0.598-0.213-0.73c-1.265-0.558-2.29-1.01-3.519-1.553   c-0.299-0.132-0.671-0.008-0.831,0.278c-6.823,12.169-13.565,24.18-20.26,36.217C5.017,47.283,5.235,47.756,5.469,48.649z    M32.18,0.086c-0.278-0.171-0.636-0.08-0.8,0.203c-0.763,1.319-1.417,2.441-2.059,3.571c-2.394,4.217-2.486,4.383,1.852,6.134   c0.303,0.122,0.696,0.001,0.878-0.271c1.375-2.059,2.776-4.159,4.269-6.396c0.181-0.272,0.103-0.631-0.175-0.802   C34.74,1.661,33.482,0.887,32.18,0.086z M40.925,6.766c-5.289,5.098-5.448,5.914-1.28,8.88c0.266,0.189,0.664,0.146,0.886-0.094   c1.502-1.624,3.024-3.27,4.635-5.012c0.222-0.24,0.204-0.61-0.04-0.827c-1.114-0.991-2.17-1.93-3.331-2.963   C41.55,6.532,41.16,6.539,40.925,6.766z" data-original="#030104" class="active-path" data-old_color="#030104" fill="#D22828"/>
</g></g> </svg>
