<svg height="512pt" viewBox="0 0 512 512" width="512pt" xmlns="http://www.w3.org/2000/svg" xmlns:xlink="http://www.w3.org/1999/xlink"><linearGradient id="a" gradientUnits="userSpaceOnUse" x1="256" x2="256" y1="0" y2="512"><stop offset="0" stop-color="#2af598"/><stop offset="1" stop-color="#009efd"/></linearGradient><path d="m276 94c0 11.046875-8.953125 20-20 20s-20-8.953125-20-20 8.953125-20 20-20 20 8.953125 20 20zm236 32v386h-40v-301.210938c-19.03125 15.742188-43.429688 25.210938-70 25.210938-60.652344 0-110-49.347656-110-110 0-23.671875 7.515625-45.621094 20.289062-63.589844-15.386718-14.351562-35.546874-22.410156-56.800781-22.410156-20.796875 0-40.847656 7.882812-56.179687 21.859375 13.015625 18.070313 20.691406 40.222656 20.691406 64.140625 0 60.652344-49.347656 110-110 110s-110-49.347656-110-110 49.347656-110 110-110c22.292969 0 43.054688 6.671875 60.40625 18.117188 22.894531-21.789063 53.390625-34.117188 85.082031-34.117188 32.152344 0 62.589844 12.429688 85.507813 34.511719 17.46875-11.6875 38.453125-18.511719 61.003906-18.511719 60.652344 0 110 49.347656 110 110zm-332 0c0-38.597656-31.402344-70-70-70s-70 31.402344-70 70 31.402344 70 70 70 70-31.402344 70-70zm292 0c0-38.597656-31.402344-70-70-70s-70 31.402344-70 70 31.402344 70 70 70 70-31.402344 70-70zm0 0" fill="url(#a)"/></svg>