<?xml version="1.0"?>
<svg xmlns="http://www.w3.org/2000/svg" height="512px" viewBox="0 0 512 512.00013" width="512px" class=""><g><path d="m294.214844 135.179688-23.867188 78.574218c-2.113281 6.964844-.269531 14.53125 4.8125 19.742188 3.808594 3.90625 8.984375 6.023437 14.289063 6.023437 1.777343 0 3.570312-.238281 5.328125-.726562l80.574218-22.316407c3.3125-.921874 6.335938-2.679687 8.773438-5.109374l109.363281-109.160157c23.347657-23.351562 23.347657-61.34375 0-84.691406-23.351562-23.351563-61.34375-23.351563-84.675781-.019531l-109.597656 109.355468c-2.324219 2.320313-4.042969 5.183594-5 8.328126zm171.042968-89.433594c7.785157 7.78125 7.785157 20.445312.011719 28.214844l-3.867187 3.859374-28.230469-28.230468 3.855469-3.847656c7.78125-7.78125 20.449218-7.78125 28.230468.003906zm-134.296874 105.828125 73.949218-73.78125 28.238282 28.234375-73.515626 73.375-40.53125 11.226562zm-66.484376-51.785157c.746094 11-7.5625 20.523438-18.5625 21.273438-70.859374 4.824219-126.363281 64.308594-126.363281 135.425781 0 74.847657 60.894531 135.742188 135.742188 135.742188 72.835937 0 132.398437-56.949219 135.605469-129.644531.484374-11.015626 9.8125-19.546876 20.820312-19.0625 11.015625.484374 19.550781 9.808593 19.066406 20.824218-1.996094 45.257813-21.136718 87.492188-53.898437 118.917969-32.859375 31.523437-76.042969 48.886719-121.59375 48.886719-96.863281 0-175.667969-78.804688-175.667969-175.667969 0-44.808594 16.875-87.480469 47.519531-120.152344 30.496094-32.515625 71.714844-52.085937 116.058594-55.101562 10.980469-.753907 20.523437 7.558593 21.273437 18.558593zm-66.078124 156.695313c0 31.371094 25.523437 56.894531 56.894531 56.894531 20.042969 0 38.835937-10.742187 49.042969-28.035156 5.601562-9.496094 17.84375-12.648438 27.335937-7.042969 9.496094 5.601563 12.648437 17.839844 7.046875 27.335938-17.351562 29.402343-49.320312 47.664062-83.425781 47.664062-53.382813 0-96.816407-43.429687-96.816407-96.816406 0-35.785156 19.613282-68.511719 51.191407-85.40625 9.722656-5.203125 21.816406-1.539063 27.019531 8.183594 5.199219 9.71875 1.535156 21.816406-8.183594 27.015625-18.570312 9.9375-30.105468 29.175781-30.105468 50.207031zm312.628906 0c0 68.25-26.578125 132.417969-74.835938 180.679687-48.261718 48.257813-112.425781 74.835938-180.675781 74.835938s-132.417969-26.578125-180.679687-74.835938c-48.257813-48.261718-74.835938-112.429687-74.835938-180.679687s26.578125-132.414063 74.835938-180.675781c48.261718-48.261719 112.429687-74.835938 180.679687-74.835938 22.105469 0 43.777344 2.792969 64.617187 8.210938 14.894532 3.867187 20.136719 22.300781 9.410157 33.332031-4.996094 5.140625-12.371094 7.25-19.304688 5.429687-17.480469-4.597656-35.820312-7.050781-54.722656-7.050781-119.058594 0-215.886719 97.011719-215.589844 216.136719.292969 118.203125 96.839844 214.75 215.042969 215.042969 119.125.296875 216.136719-96.53125 216.136719-215.589844 0-18.054687-2.25-35.589844-6.457031-52.359375-1.699219-6.769531.164062-13.933594 5.027343-18.9375 10.925781-11.230469 29.964844-6.121094 33.753907 9.078125 5.015624 20.105469 7.597656 40.964844 7.597656 62.21875zm0 0" data-original="#000000" class="active-path" data-old_color="#000000" fill="#FFFFFF"/></g> </svg>
